<svg width="161" height="34" viewBox="0 0 161 34" fill="none" xmlns="http://www.w3.org/2000/svg">
<path d="M0 13.9848L13.9848 0V6.9924H27.9695L13.9848 17.481V27.9696L0 13.9848Z" fill="white"/>
<path d="M48.9466 13.9848L34.962 27.9696V20.9772H20.9772L34.962 10.4886V0L48.9466 13.9848Z" fill="white"/>
<path d="M76.1273 26.2639V1.78938H82.0427V12.1385H82.3654L90.4558 1.78938H97.423L88.7469 12.7121L97.5784 26.2639H90.5036L84.409 16.6438L82.0427 19.6314V26.2639H76.1273Z" fill="white"/>
<path d="M55.1567 26.2639V22.8939L67.0473 6.59346H55.1687V1.78938H74.5284V5.15942L62.6378 21.4598H74.5164V26.2639H55.1567Z" fill="white"/>
<path d="M153.997 26.6464C152.356 26.6464 150.926 26.2359 149.707 25.4154C148.496 24.5948 147.556 23.4715 146.887 22.0454C146.217 20.6193 145.883 18.994 145.883 17.1696C145.883 15.3292 146.221 13.692 146.899 12.258C147.584 10.8239 148.532 9.70057 149.743 8.88795C150.954 8.06734 152.36 7.65707 153.961 7.65707C155.188 7.65707 156.299 7.89606 157.295 8.37409C158.291 8.84414 159.112 9.50938 159.757 10.3698C160.411 11.2223 160.821 12.2181 160.988 13.3574H158.837C158.614 12.3217 158.076 11.4374 157.224 10.7044C156.379 9.9635 155.304 9.59304 153.997 9.59304C152.826 9.59304 151.79 9.91169 150.89 10.5491C149.99 11.1785 149.285 12.0588 148.775 13.1901C148.273 14.3134 148.022 15.616 148.022 17.0979C148.022 18.5877 148.269 19.9063 148.763 21.0535C149.257 22.1928 149.95 23.0851 150.842 23.7304C151.743 24.3757 152.794 24.6984 153.997 24.6984C154.81 24.6984 155.551 24.547 156.22 24.2443C156.897 23.9335 157.463 23.4954 157.917 22.9297C158.379 22.3641 158.69 21.6909 158.849 20.9101H161C160.841 22.0175 160.446 23.0054 159.817 23.8738C159.196 24.7342 158.387 25.4114 157.391 25.9054C156.403 26.3992 155.272 26.6464 153.997 26.6464Z" fill="white"/>
<path d="M131.821 14.7915V26.2639H129.694V7.908H131.762V10.7881H131.953C132.383 9.84797 133.052 9.09508 133.961 8.52943C134.877 7.95581 136.008 7.66901 137.355 7.66901C138.589 7.66901 139.673 7.92794 140.605 8.44578C141.545 8.95567 142.274 9.70854 142.792 10.7044C143.318 11.7003 143.581 12.9232 143.581 14.3732V26.2639H141.453V14.5047C141.453 12.9989 141.031 11.8078 140.187 10.9315C139.35 10.0551 138.227 9.61692 136.817 9.61692C135.853 9.61692 134.996 9.82407 134.247 10.2383C133.498 10.6526 132.905 11.2501 132.467 12.0309C132.037 12.8037 131.821 13.7239 131.821 14.7915Z" fill="white"/>
<path d="M115.161 33.1472C114.739 33.1472 114.344 33.1075 113.978 33.0278C113.612 32.9482 113.321 32.8606 113.105 32.765L113.679 30.8887C114.404 31.1118 115.049 31.1915 115.615 31.1277C116.181 31.0721 116.683 30.8171 117.121 30.3628C117.559 29.9168 117.949 29.2315 118.292 28.3074L118.961 26.4431L112.209 7.908H114.516L119.965 23.4555H120.133L125.582 7.908H127.888L120.121 29.1678C119.794 30.0521 119.392 30.7891 118.913 31.3788C118.435 31.9763 117.882 32.4183 117.252 32.7052C116.631 32.9999 115.934 33.1472 115.161 33.1472Z" fill="white"/>
<path d="M111.114 11.9353L109.166 12.485C108.975 11.9353 108.704 11.4374 108.354 10.9912C108.003 10.5451 107.545 10.1906 106.98 9.92763C106.422 9.66473 105.729 9.53326 104.9 9.53326C103.657 9.53326 102.637 9.82804 101.841 10.4176C101.044 11.0072 100.646 11.768 100.646 12.7001C100.646 13.4889 100.917 14.1302 101.458 14.6242C102.008 15.1101 102.853 15.4965 103.992 15.7834L106.764 16.4645C108.302 16.839 109.453 17.4325 110.218 18.2451C110.991 19.0578 111.377 20.0775 111.377 21.3045C111.377 22.3402 111.09 23.2603 110.517 24.065C109.943 24.8697 109.142 25.5031 108.115 25.9651C107.095 26.4193 105.912 26.6464 104.565 26.6464C102.773 26.6464 101.295 26.244 100.132 25.4393C98.9686 24.6267 98.2237 23.4555 97.8971 21.9259L99.9407 21.424C100.204 22.5154 100.717 23.34 101.482 23.8977C102.255 24.4554 103.271 24.7342 104.53 24.7342C105.94 24.7342 107.067 24.4195 107.912 23.7901C108.756 23.1528 109.178 22.3561 109.178 21.4001C109.178 20.6591 108.931 20.0377 108.437 19.5358C107.944 19.0259 107.195 18.6515 106.191 18.4124L103.191 17.6954C101.598 17.313 100.419 16.7075 99.6538 15.8789C98.8889 15.0504 98.5067 14.0227 98.5067 12.7957C98.5067 11.7839 98.7815 10.8956 99.3312 10.1308C99.8809 9.35801 100.638 8.75252 101.602 8.31434C102.566 7.87616 103.665 7.65707 104.9 7.65707C106.581 7.65707 107.923 8.03947 108.927 8.8043C109.939 9.56116 110.668 10.6048 111.114 11.9353Z" fill="white"/>
</svg>
